# xmcd CD database file
#
# Track frame offsets:
#	150
#	21535
#	34270
#	49340
#	63805
#	74960
#	89307
#	105707
#	118985
#	134430
#	151015
#	165012
#	179395
#
# Disc length: 2622 seconds
#
# Revision: 0
# Processed by: cddbd v1.5.1PL0 Copyright (c) Steve Scherf et al.
# Submitted via: CDex 1.40Beta9
#
DISCID=b50a3c0d
DTITLE=Henrique and Rafael - Volume 3
DYEAR=2000
DGENRE=Country
TTITLE0=Quero morar com vicê na Califórnia
TTITLE1=Vida de peão
TTITLE2=Chove
TTITLE3=Saudade louca
TTITLE4=Eu sou caipira
TTITLE5=Quero amar você
TTITLE6=Timidez
TTITLE7=Pó de mico
TTITLE8=Gamado nela
TTITLE9=Difícil, aceitar que acabou
TTITLE10=Tá faltando homem
TTITLE11=Pega-pega com a patroa
TTITLE12=Eu já sei te amar
EXTD=YEAR: 2000 ID3G: 2
EXTT0=
EXTT1=
EXTT2=
EXTT3=
EXTT4=
EXTT5=
EXTT6=
EXTT7=
EXTT8=
EXTT9=
EXTT10=
EXTT11=
EXTT12=
PLAYORDER=
